<?xml version="1.0" encoding="UTF-8" standalone="no"?>
<svg
   xmlns:dc="http://purl.org/dc/elements/1.1/"
   xmlns:cc="http://creativecommons.org/ns#"
   xmlns:rdf="http://www.w3.org/1999/02/22-rdf-syntax-ns#"
   xmlns:svg="http://www.w3.org/2000/svg"
   xmlns="http://www.w3.org/2000/svg"
   xmlns:sodipodi="http://sodipodi.sourceforge.net/DTD/sodipodi-0.dtd"
   xmlns:inkscape="http://www.inkscape.org/namespaces/inkscape"
   version="1.1"
   id="svg2"
   xml:space="preserve"
   width="4000"
   height="2786.6667"
   viewBox="0 0 4000 2786.6667"
   sodipodi:docname="VectorEPS_ByTailorBrands.eps"><metadata
     id="metadata8"><rdf:RDF><cc:Work
         rdf:about=""><dc:format>image/svg+xml</dc:format><dc:type
           rdf:resource="http://purl.org/dc/dcmitype/StillImage" /></cc:Work></rdf:RDF></metadata><defs
     id="defs6"><clipPath
       clipPathUnits="userSpaceOnUse"
       id="clipPath20"><path
         d="M 10,10455 V 10 H 29990 V 20900 H 10 Z m 29350,4145 V 8940 H 640 v 11320 h 28720 z m -5,-10130 V 645 H 645 l -2.5,3815 c -1.379,2098 -0.645,3820.63 2,3827.5 3.602,10 2880.5,12 14357.5,10 L 29355,8295 V 4470 Z"
         clip-rule="evenodd"
         id="path18" /></clipPath><clipPath
       clipPathUnits="userSpaceOnUse"
       id="clipPath26"><path
         d="M 0,0 H 30000 V 20900 H 0 Z"
         id="path24" /></clipPath><clipPath
       clipPathUnits="userSpaceOnUse"
       id="clipPath36"><path
         d="m 10710,17340 v -50 h 134 c 415,0 781.3,-125.9 1146,-393.9 118.3,-86.9 714,-610.5 973,-855.2 l 37,-34.9 -1,149 -62,53.5 c -34.3,29.6 -138,118.8 -232,199.5 -94,80.7 -228.1,199.7 -300,266.1 -589,544.1 -957.6,715.9 -1536,715.9 h -159 v -50"
         clip-rule="evenodd"
         id="path34" /></clipPath><clipPath
       clipPathUnits="userSpaceOnUse"
       id="clipPath42"><path
         d="M 0,0 H 30000 V 20900 H 0 Z"
         id="path40" /></clipPath><clipPath
       clipPathUnits="userSpaceOnUse"
       id="clipPath52"><path
         d="m 13138.5,16342 -3.5,-1048 -25.2,-49 c -37.9,-73.7 -80.8,-91.7 -249.8,-105 -313,-24.6 -536.1,-84.2 -805,-215.1 -231,-112.5 -378.5,-216.3 -558,-392.8 -491.4,-483.3 -700.1,-1178.1 -565.3,-1882.1 136.9,-714.7 726.3,-1335.7 1481.3,-1560.7 547,-163 1175.9,-63.4 1662,263.4 471.9,317.3 759.7,736.3 880.5,1282.3 38.7,175 44.4,322 43.4,1135 l -0.9,725 -97,-200 -0.5,-663 c -0.3,-395 -4.8,-702.2 -11.1,-760 -66,-604 -407.5,-1150.2 -914.4,-1462.6 -110.5,-68.1 -319,-164.2 -440,-202.9 -403,-128.8 -822.2,-127.5 -1216,3.6 -583.3,194.2 -1092.3,730.9 -1253.6,1321.9 -94.2,345.2 -94.5,737 -0.6,1086 172.6,642.6 714.2,1178.4 1365.2,1351 149.3,39.6 256,57.6 421,71.1 74,6 157.7,17.6 187,25.8 65.8,18.4 124.3,69.1 159.2,138.1 23.3,46.1 26.6,67 33.8,216 4.4,90.7 8.2,571.5 8.5,1067.5 l 0.5,902.5 h -98 l -3.5,-1048"
         clip-rule="evenodd"
         id="path50" /></clipPath><clipPath
       clipPathUnits="userSpaceOnUse"
       id="clipPath58"><path
         d="M 0,0 H 30000 V 20900 H 0 Z"
         id="path56" /></clipPath><clipPath
       clipPathUnits="userSpaceOnUse"
       id="clipPath68"><path
         d="m 13387.5,16307.5 -2.5,-1082.5 -23.4,-58 c -27.1,-67.2 -108.6,-160.6 -179.6,-205.8 -74.8,-47.6 -154,-69.1 -282,-76.6 -500,-29.1 -883.2,-187.7 -1209,-500.2 -167.7,-161 -278,-308.4 -373.5,-499.4 -207.6,-415.2 -241.1,-955 -87.8,-1416 174.9,-526 630.9,-974.3 1153.3,-1133.8 351,-107.2 776.6,-104.5 1127,7.1 120,38.2 309.9,128.5 420,199.6 313.9,203 551.1,493.1 690.8,845.1 44.1,111 97.6,302.5 115.4,413 19.2,119 34.6,1287.8 16.8,1276.8 -6.1,-3.7 -31.4,-35.3 -56.5,-70.3 l -45.5,-63.5 -4,-544 c -3.8,-518 -5.1,-548.8 -26.2,-644 -82.5,-371 -237.8,-645.5 -517.8,-915 -135.2,-130.1 -248,-210.6 -413,-294.8 -144.1,-73.6 -285,-123.7 -440,-156.7 -142.6,-30.4 -444,-32.8 -595,-4.8 -220,40.8 -491.8,152.5 -690,283.6 -133,88 -328.5,282.9 -413.9,412.7 -122.9,186.7 -231.3,451 -281.1,685 -27.8,131 -37.7,394 -20.4,543 43.3,372 200.7,698.9 465.5,967 225.9,228.6 479.9,376.5 770.9,448.6 141.3,35 208,44.7 384,55.7 85,5.3 181.6,16.8 214,25.3 140,37.1 287.6,147.9 348.3,261.4 59.6,111.6 57.7,70 57.7,1246 v 1078 h -100 l -2.5,-1082.5"
         clip-rule="evenodd"
         id="path66" /></clipPath><clipPath
       clipPathUnits="userSpaceOnUse"
       id="clipPath74"><path
         d="M 0,0 H 30000 V 20900 H 0 Z"
         id="path72" /></clipPath><clipPath
       clipPathUnits="userSpaceOnUse"
       id="clipPath84"><path
         d="m 13640,16314 c 0,-1200 4.1,-1126.6 -71.7,-1281 -47.2,-96 -106.7,-166.3 -192.3,-227.3 -147.9,-105.3 -258,-142.4 -479,-161.3 -272,-23.3 -432.3,-62.9 -624,-154.1 -369.2,-175.7 -663.1,-503.3 -796.8,-888.3 -62,-178.7 -80.3,-298 -80.6,-527 -0.5,-294 34.9,-458.5 148.2,-690 182.4,-372.7 525.2,-676.3 902.2,-799.1 379,-123.5 856.3,-90.5 1201,82.9 147,74 261.1,158.4 393.6,291.2 204.8,205.3 324,406 394.8,665 47.6,174.2 54.5,267 54.1,720 l -0.5,420 -97,-109 -4.5,-410.5 c -4.1,-372 -6.4,-418.6 -25.3,-496.5 -70,-290 -185.3,-494 -401.2,-709.5 -221.2,-220.9 -430,-336 -729,-402.1 -133,-29.4 -453.5,-31.7 -582,-4.2 -294,63 -517.8,184.9 -730,397.8 -214.3,215 -338.3,441 -401.8,732 -19,87.4 -22.2,132 -22.2,312 0,227 14.3,327.7 70.4,495 119.6,357 397.2,670.8 738.6,834.9 181.8,87.3 351,126.7 620,144.3 83,5.4 183.5,18.5 225,29.3 251,65.2 443.2,230.4 536.9,461.5 54,133.3 53.1,111 53.1,1272 v 1078 h -100 v -1076"
         clip-rule="evenodd"
         id="path82" /></clipPath><clipPath
       clipPathUnits="userSpaceOnUse"
       id="clipPath90"><path
         d="M 0,0 H 30000 V 20900 H 0 Z"
         id="path88" /></clipPath><clipPath
       clipPathUnits="userSpaceOnUse"
       id="clipPath100"><path
         d="m 13900,16330 c 0,-1170 1.9,-1131.2 -63.5,-1296 -48.1,-121 -130.2,-245.9 -226.1,-344 -93.1,-95.2 -142.4,-131.9 -246.4,-183.6 -130.9,-65 -237,-89.3 -461,-105.7 -229,-16.8 -371.7,-54.2 -546,-143.1 -363.2,-185.4 -627.3,-533.6 -700.4,-923.6 -49.2,-262 -20.2,-537.9 80.9,-771 54.7,-126 156.1,-274.7 265.2,-389 302.2,-316.3 685.3,-456.2 1097.3,-400.7 159,21.5 274.1,56.5 415,126.5 147,72.9 261.7,158.2 382.4,284.2 188.2,196.6 301.2,412 348.3,664 20.7,111 33.6,692 15.3,692 -6.1,0 -29,-11.9 -51,-26.5 l -40,-26.5 v -226 c 0,-124 -4.5,-268.9 -10,-321 -28.4,-271 -143.8,-511.7 -340.3,-710 -238,-240.2 -530.7,-361.4 -874.7,-362.1 -316,-0.6 -560.7,99.4 -805,329.2 -205.7,193.3 -342.4,434.9 -385,679.9 -34.2,197 -12.7,449 53.9,631 121.4,331.4 413.1,612.8 753.1,726.3 107.5,35.9 208,54.1 361,65.5 162,12 255.3,28.7 363,64.7 345.4,115.6 616.7,419.5 696,779.5 19.2,87.3 20.2,134.5 25,1168.5 l 5,1077.5 h -112 v -1060"
         clip-rule="evenodd"
         id="path98" /></clipPath><clipPath
       clipPathUnits="userSpaceOnUse"
       id="clipPath106"><path
         d="M 0,0 H 30000 V 20900 H 0 Z"
         id="path104" /></clipPath><clipPath
       clipPathUnits="userSpaceOnUse"
       id="clipPath116"><path
         d="m 14169.6,16408 c -0.5,-1058 -6,-1248.3 -39.8,-1368 -43.4,-154 -158.3,-356.4 -278.9,-491 -60.3,-67.4 -188.9,-169.7 -278.9,-221.9 -162,-94.1 -351,-149.8 -567,-167.2 -196,-15.8 -268.9,-27.2 -353,-55.3 -218,-72.8 -426.4,-213.4 -532.9,-359.6 -223.2,-306.4 -288,-680 -175.2,-1011 87.2,-256 300,-495.8 551.1,-621.2 157.8,-78.8 360,-113.6 541,-93.2 261,29.3 461,126.4 650,315.4 186.5,186.5 285.9,389 313.8,639 15.5,139 14.3,409.7 -1.8,403.2 -7.2,-2.9 -31.5,-12.6 -54.5,-21.7 l -41.5,-16.5 -4.5,-217 c -3.8,-182 -8,-229.9 -26.1,-297 -59.5,-220 -208.3,-425 -402.4,-554.5 -169.9,-113.4 -333,-156.1 -564,-147.7 -165,6 -223.5,20.1 -360,86.8 -253.7,124 -448.2,355.4 -527.3,627.4 -19.8,68.2 -22.6,100 -21.7,253 0.9,160 3.3,182.7 27.7,265 97.4,328 353.6,579.9 672.3,660.9 61.7,15.6 150,27.7 252,34.5 305,20.2 523.4,89.4 743,235.3 95.3,63.4 247.3,209.3 321.1,308.3 73.2,98.1 178.1,310 213.5,431 36.8,126 42.5,315 43.6,1442 l 0.8,923 h -100 l -0.4,-982"
         clip-rule="evenodd"
         id="path114" /></clipPath><clipPath
       clipPathUnits="userSpaceOnUse"
       id="clipPath122"><path
         d="M 0,0 H 30000 V 20900 H 0 Z"
         id="path120" /></clipPath><clipPath
       clipPathUnits="userSpaceOnUse"
       id="clipPath132"><path
         d="m 14387.6,16258 c -3.7,-1248 -1.4,-1200.4 -67.8,-1400 -109.8,-329.8 -381.8,-633.8 -717.8,-802.2 -171.4,-85.9 -389,-139.6 -634,-156.5 -295,-20.4 -446.6,-78.4 -599,-229.2 -127.1,-125.8 -193.4,-259.1 -219.8,-442.1 -14.2,-98 -6.2,-267 16.6,-353 40.4,-152 153,-324 282.2,-430.9 249.7,-206.6 606,-231.8 888,-62.7 84.9,51 206.9,170.6 267.6,262.6 101.6,153.8 135.6,276 136.1,489 l 0.3,139 -25,-6.2 c -77.9,-19.5 -75,-13.8 -75,-147.8 0,-237 -59.5,-387.9 -214.6,-544 -73.5,-74 -106.3,-98.8 -175.4,-132.9 -199,-98 -437.1,-95.9 -633,5.5 -104.6,54.2 -238.7,190.4 -294.6,299.4 -57.3,111.8 -75.4,193 -75.4,339 0,135 21.4,232.7 75.1,342 82.1,167.4 246.9,302 425.9,347.9 34.8,8.9 131,20.2 215,25.3 236,14.3 399.1,49.1 586,125.1 313,127.3 591.9,377.7 755.9,678.7 83.9,154 159.2,375.7 175.3,516 5.8,50.3 9.8,531.5 9.8,1177.5 V 17390 h -99 l -3.4,-1132"
         clip-rule="evenodd"
         id="path130" /></clipPath><clipPath
       clipPathUnits="userSpaceOnUse"
       id="clipPath138"><path
         d="M 0,0 H 30000 V 20900 H 0 Z"
         id="path136" /></clipPath><clipPath
       clipPathUnits="userSpaceOnUse"
       id="clipPath148"><path
         d="m 14647.5,16252.5 c -3.5,-1131 -3.6,-1138 -25.4,-1230.5 -123.2,-523 -484.1,-979.7 -962.1,-1217.3 -210.3,-104.6 -387,-150.3 -637,-164.7 -245,-14.2 -344.5,-51.3 -469,-175.1 -118.7,-117.9 -172,-262.9 -159.9,-434.9 10.6,-152 55,-252.2 154.9,-349.8 114.7,-112 235,-155.7 406,-147.4 122,5.9 204.9,33.8 298,100.2 159.9,114 237,265 237,464 0,101 0.6,100.2 -63,82.4 l -37,-10.4 v -67 c 0,-136 -42.7,-236.8 -141,-333.3 -105.3,-103.3 -252,-153.9 -382,-131.9 -128,21.8 -255.1,109.5 -306,211.2 -59,118 -75.6,200 -61.3,302 13.4,95 46.2,165.8 107,231 98.9,105.9 173.3,134.6 402.3,154.6 90,7.9 209.6,23.6 265,34.8 540,109.2 1025,479.5 1271.6,970.6 60.7,121 140.7,324.2 170.5,433 35.5,129.8 43,389 43.5,1498 l 0.4,918 h -109 l -3.5,-1137.5"
         clip-rule="evenodd"
         id="path146" /></clipPath><clipPath
       clipPathUnits="userSpaceOnUse"
       id="clipPath154"><path
         d="M 0,0 H 30000 V 20900 H 0 Z"
         id="path152" /></clipPath><clipPath
       clipPathUnits="userSpaceOnUse"
       id="clipPath164"><path
         d="m 14896.6,16238 c -4.8,-1239 -2.5,-1184.3 -57,-1386 -137.6,-509 -573.1,-1028.2 -1072.6,-1278.7 -127,-63.7 -303.3,-124.5 -428,-147.7 -46.2,-8.6 -156,-22.5 -244,-30.8 -345,-32.9 -441.1,-95.5 -452.6,-294.8 -8.3,-144 42.1,-241.5 152.6,-295.2 50.3,-24.5 63,-26.5 148,-22.8 79,3.4 100.1,8.1 140,31.4 55.2,32.1 99.5,88.6 121.3,154.6 15.5,47 36.8,173.1 30.4,180 -2,2.2 -23.7,1.1 -48.7,-2.5 -43,-6.2 -45.3,-8.1 -50.8,-43.5 -21.3,-136 -70.1,-201.9 -165.2,-223.3 -49,-10.9 -120.8,3.6 -162,33 -65.4,46.5 -88.2,170.3 -47,255.3 38,78.4 104,102.9 345,128 325,33.9 488.2,77.2 710,188.4 276,138.4 491.9,306.8 681.5,531.6 210.2,249.1 411.8,642 467.6,911 27.6,132.6 34.9,442 34.9,1467 v 997 h -99 l -4.4,-1152"
         clip-rule="evenodd"
         id="path162" /></clipPath><clipPath
       clipPathUnits="userSpaceOnUse"
       id="clipPath170"><path
         d="M 0,0 H 30000 V 20900 H 0 Z"
         id="path168" /></clipPath><clipPath
       clipPathUnits="userSpaceOnUse"
       id="clipPath180"><path
         d="m 17140,17379.3 c -317,-39.2 -628.9,-153.7 -890,-326.9 -139,-92.2 -214.8,-153.8 -333,-270.5 -177.6,-175.3 -278.3,-314.9 -387.2,-536.9 -114.3,-232.7 -182.7,-477 -199.6,-713 -5.1,-69.9 -9.2,-464 -9.2,-877 v -750 l 99,208 v 673 c 0,548 2.9,694.9 15.4,791 96.4,738 595.7,1353.9 1298.6,1601.8 524,184.8 1113.7,138.5 1577,-123.9 333.5,-189 644,-513.9 812,-849.9 141.1,-282.1 198,-534 198,-876 0,-309 -47.5,-548.6 -160.3,-809 -134.8,-311 -401.5,-624.7 -705.7,-829.9 -249.8,-168.5 -560,-280.1 -875,-314.8 -275,-30.2 -297.6,-34.1 -349,-60 -58.4,-29.4 -103.3,-85.3 -128,-159.3 -15.4,-46.3 -17.3,-147.5 -20.5,-1098.5 L 17079,11010 h 99 l 7,2105 21.9,41 c 43.4,81.3 79.1,94.4 308.1,113 835,67.6 1551.9,626.7 1809.2,1411 138.1,421 138.5,895.6 1.1,1307 -228.4,683.9 -878.3,1235 -1620.3,1373.9 -126,23.5 -440.3,33.8 -565,18.4"
         clip-rule="evenodd"
         id="path178" /></clipPath><clipPath
       clipPathUnits="userSpaceOnUse"
       id="clipPath186"><path
         d="M 0,0 H 30000 V 20900 H 0 Z"
         id="path184" /></clipPath><clipPath
       clipPathUnits="userSpaceOnUse"
       id="clipPath196"><path
         d="m 10712,17097.5 3,-52.5 129,-7.1 c 368,-20.4 689.1,-124.3 943,-305.1 77.6,-55.3 663,-561.7 1008,-871.9 88,-79.1 170.1,-152.9 182.5,-163.9 l 22.5,-20 v 138 l -152,135 c -83.7,74.4 -264.5,233.4 -402.5,354 -138,120.7 -288.7,255.5 -335.5,300.3 -273.8,262 -610,441.6 -945,504.8 -121,22.8 -294.9,40.9 -393,40.9 h -63 l 3,-52.5"
         clip-rule="evenodd"
         id="path194" /></clipPath><clipPath
       clipPathUnits="userSpaceOnUse"
       id="clipPath202"><path
         d="M 0,0 H 30000 V 20900 H 0 Z"
         id="path200" /></clipPath><clipPath
       clipPathUnits="userSpaceOnUse"
       id="clipPath212"><path
         d="m 17193,17139.2 c -265,-25.5 -525.6,-110.4 -747,-243.3 -305.7,-183.5 -539.3,-435.9 -687.5,-742.9 -54.9,-113.6 -138.9,-358 -162.7,-473 -25.5,-123.4 -36.4,-418 -33.5,-905 l 2.7,-460 100,140 5.6,550 c 6.3,613 7.2,621.3 84.8,854 122.5,367 407.4,720.9 749.6,931.1 430.6,264.6 935,323.4 1404,163.7 214,-72.9 441.5,-201.2 605,-341.1 335.8,-287.5 565.5,-816.7 566.2,-1304.7 0.5,-332 -83.9,-638.6 -246.6,-895 -154.5,-243.5 -420.6,-485.8 -672.6,-612.3 -218.7,-109.8 -516,-180.2 -764,-180.9 -161,-0.5 -311.3,-62.4 -422.3,-173.8 -38.8,-39 -80.9,-92.2 -93.4,-118 -52.7,-108.9 -51.3,-75 -51.3,-1235 v -1083 h 100 l 5,2175 33.4,68 c 81.6,166.2 255.6,266.2 463.6,266.6 99.3,0.3 281,26.5 411,59.4 307,77.8 573.1,229.6 807,460.6 300.9,297.1 467.8,632.4 520.3,1045.4 15.6,123.1 12.7,408 -5.6,532 -75.1,511 -352.1,945.2 -789.7,1238 -340.9,228.2 -748,326 -1182,284.2"
         clip-rule="evenodd"
         id="path210" /></clipPath><clipPath
       clipPathUnits="userSpaceOnUse"
       id="clipPath218"><path
         d="M 0,0 H 30000 V 20900 H 0 Z"
         id="path216" /></clipPath><clipPath
       clipPathUnits="userSpaceOnUse"
       id="clipPath228"><path
         d="m 10710,16853 v -50 l 123,-6.1 c 224,-11 403.6,-54.7 582,-141.7 175.5,-85.6 329,-200.3 630,-470.5 171,-153.5 255.1,-226.8 390,-340.1 116,-97.3 447,-388.4 532,-467.8 l 33,-30.8 v 130 l -375.5,334.5 c -207,184.4 -414.5,369.4 -462.5,412.2 -305,272.2 -443.3,381.7 -597,472.3 -212.5,125.4 -433,186.5 -727,201.5 l -128,6.5 v -50"
         clip-rule="evenodd"
         id="path226" /></clipPath><clipPath
       clipPathUnits="userSpaceOnUse"
       id="clipPath234"><path
         d="M 0,0 H 30000 V 20900 H 0 Z"
         id="path232" /></clipPath><clipPath
       clipPathUnits="userSpaceOnUse"
       id="clipPath244"><path
         d="m 17195,16883.8 c -394,-55.7 -664.1,-184.6 -919,-438.7 -215.9,-215.3 -352,-467.1 -418.3,-774.1 -18.8,-87.3 -21.1,-138.5 -24.7,-565.5 l -4,-469.5 88,99 5.4,380 c 5.9,422 13.3,489.7 73.1,676 134.2,418 503.5,789 924.5,928.8 267.5,88.9 607,94.7 885,15.3 119,-34.1 311.7,-129.1 411,-202.8 309.6,-229.6 507,-531.3 585.8,-895.3 32.5,-150.4 32.7,-454 0.4,-615 -28.9,-144 -70.3,-260.9 -138.8,-393 -72.2,-139 -158.3,-251.9 -285.4,-374.4 -161.4,-155.5 -320,-252.7 -521,-319.3 -144,-47.7 -230,-63.6 -412,-76.2 -213,-14.7 -314.9,-37.6 -441,-99.1 -208.3,-101.7 -362.6,-297 -409.9,-519 -11.5,-54 -14.1,-262.5 -14.1,-1148.5 V 11010 h 89 l 3.4,1078 c 3.9,1211 -2.3,1115 82.8,1288 52.6,106.9 120.8,180.8 229.8,249.1 142.7,89.4 246,120.2 452,134.8 437,30.9 767.9,180.7 1053.9,477.1 230.6,238.9 356,484 415.9,813 24,132 24.1,438.2 0.1,567 -37.6,202 -114.4,398.3 -219,560 -184.8,285.5 -495.9,532.5 -797.9,633.5 -168.3,56.2 -258,70.4 -470,74.1 -107,1.9 -208.5,1.5 -225,-0.8"
         clip-rule="evenodd"
         id="path242" /></clipPath><clipPath
       clipPathUnits="userSpaceOnUse"
       id="clipPath250"><path
         d="M 0,0 H 30000 V 20900 H 0 Z"
         id="path248" /></clipPath><clipPath
       clipPathUnits="userSpaceOnUse"
       id="clipPath260"><path
         d="m 10714.5,16647.5 c -3,-8.4 -4.1,-33 -2.5,-54 l 3,-38.5 115,-6.4 c 182,-10.2 323,-41.2 470,-103.2 92,-38.8 228.7,-126 290,-185.1 24.8,-23.9 220,-201.2 435,-395.3 215,-194.1 452.4,-408.7 529,-478.4 149,-135.6 149,-135.6 239,-118.6 l 37,7 -367.5,336.5 c -202,185 -453.1,416.4 -557.5,513.8 -438,408.8 -626,501 -1083,531 -86,5.6 -102.9,4.3 -107.5,-8.8"
         clip-rule="evenodd"
         id="path258" /></clipPath><clipPath
       clipPathUnits="userSpaceOnUse"
       id="clipPath266"><path
         d="M 0,0 H 30000 V 20900 H 0 Z"
         id="path264" /></clipPath><clipPath
       clipPathUnits="userSpaceOnUse"
       id="clipPath276"><path
         d="m 17170,16624.3 c -462,-74.1 -883.5,-426 -1043.7,-871.3 -57.9,-160.8 -68.2,-242 -73.4,-580 -2.7,-172 -1.5,-313 2.6,-313 4.1,0 27,12.3 51,27.5 l 43.5,27.5 v 235 c 0,259 8.4,359.5 40.8,489 106.7,426.9 480.2,779.5 923.2,871.4 402,83.4 772.2,-23.8 1069,-309.6 195.9,-188.7 304.8,-368.8 368.8,-609.8 29.1,-109.6 36.4,-363 14.2,-490 -43.5,-249 -157.2,-461.7 -344,-643.2 -236.3,-229.7 -472,-329.5 -843,-357 -168,-12.4 -267.6,-32.4 -383,-76.9 -314.5,-121 -561.4,-391.9 -646.2,-708.9 -33.2,-124.1 -38.9,-320 -39.4,-1358 l -0.4,-948 52.5,3 52.5,3 5.5,1090 c 3,600 9.1,1101.2 13.5,1115 4.4,13.9 17.1,54 28.4,90 44.4,141 129.9,281.9 242.3,399 180.3,188 373.3,270.1 683.3,290.6 174,11.6 273.5,29.2 398,70.7 383,127.5 706.7,448.4 831.8,824.7 47,141.2 65.3,260 65.5,425 0.5,361 -114.2,644.6 -367.2,908 -200.2,208.4 -409.1,330.4 -664.1,387.9 -99.9,22.6 -365,27.2 -482,8.4"
         clip-rule="evenodd"
         id="path274" /></clipPath><clipPath
       clipPathUnits="userSpaceOnUse"
       id="clipPath282"><path
         d="M 0,0 H 30000 V 20900 H 0 Z"
         id="path280" /></clipPath><clipPath
       clipPathUnits="userSpaceOnUse"
       id="clipPath292"><path
         d="m 10712,16352.5 3,-47.5 113,-7.4 c 224,-14.7 403.7,-76.6 563,-194 36.3,-26.7 278.5,-245.6 538.5,-486.6 391,-362.4 476.1,-436.8 493.5,-431.3 44,14.2 87.3,35.3 86.7,42.3 -0.4,3.9 -230.2,214.2 -510.2,467 -325,293.4 -541,480.9 -596.5,517.8 -118,78.4 -235.7,134.4 -319,151.8 -74,15.5 -260.6,35.4 -332,35.4 h -43 l 3,-47.5"
         clip-rule="evenodd"
         id="path290" /></clipPath><clipPath
       clipPathUnits="userSpaceOnUse"
       id="clipPath298"><path
         d="M 0,0 H 30000 V 20900 H 0 Z"
         id="path296" /></clipPath><clipPath
       clipPathUnits="userSpaceOnUse"
       id="clipPath308"><path
         d="m 17270,16384.4 c -13.7,-2.4 -52,-9.1 -85,-14.8 -207,-35.9 -402.9,-146.1 -571.4,-321.6 -95.6,-99.5 -152.7,-181 -204.5,-292 -74.6,-159.6 -99.1,-300 -99.1,-568 v -168 l 42.5,16.5 c 23,8.9 47.8,20.6 54,25.5 7.8,6.1 13,79 16,226 4.9,232 12.9,280 70.3,419 59.4,144 194.7,310.4 332.2,408.4 237.3,169.2 560,216.5 841,123.2 293.4,-97.3 548.6,-367.6 636.1,-673.6 19.9,-69.6 22.8,-102 22.1,-250 -1,-197 -16.2,-271.2 -84.8,-414 -54.7,-114 -110.6,-189.8 -211.4,-286.6 -180.9,-173.8 -355,-242 -673,-263.8 -233,-15.9 -401.8,-58.2 -570,-142.9 -335.4,-168.8 -564.4,-440.7 -684.7,-812.7 -28.7,-88.8 -33.2,-119 -40.8,-270 -4.7,-93.5 -8.7,-607.5 -9,-1142.5 l -0.5,-972.5 h 100 l 0.5,1017.5 c 0.3,560 4.6,1073.7 9.6,1142.5 18,249 132.7,496.4 323.2,697 222.6,234.5 502.7,353.9 896.7,382.5 156,11.2 230.1,25.5 331,63.6 220,83 408.2,222.8 514.2,381.9 280.3,421 271.8,917.4 -22.1,1285 -153.9,192.5 -351.1,324.1 -571.1,381.1 -75,19.5 -301.2,34 -362,23.3"
         clip-rule="evenodd"
         id="path306" /></clipPath><clipPath
       clipPathUnits="userSpaceOnUse"
       id="clipPath314"><path
         d="M 0,0 H 30000 V 20900 H 0 Z"
         id="path312" /></clipPath><clipPath
       clipPathUnits="userSpaceOnUse"
       id="clipPath324"><path
         d="m 10714.5,16157 c -3,-8.2 -4.1,-32.5 -2.5,-53.5 l 3,-38.5 113,-6.9 c 242.7,-14.9 320,-55.3 609,-318.3 203,-184.7 425.6,-392.8 565,-528.2 l 117,-113.6 33,11.5 c 18,6.3 43.7,17.4 56.5,24.5 22.8,12.6 9.5,25.9 -433.5,435.5 -251,232.1 -481.8,438.3 -512,457.5 -142.9,91 -252,125.2 -440,138 -87,5.9 -103.8,4.7 -108.5,-8"
         clip-rule="evenodd"
         id="path322" /></clipPath><clipPath
       clipPathUnits="userSpaceOnUse"
       id="clipPath330"><path
         d="M 0,0 H 30000 V 20900 H 0 Z"
         id="path328" /></clipPath><clipPath
       clipPathUnits="userSpaceOnUse"
       id="clipPath340"><path
         d="m 17214,16115.2 c -238,-53.7 -459.2,-238.1 -565.3,-471.2 -50,-110 -68.7,-211 -68.7,-372 0,-133 1.3,-143.5 17.5,-137.5 9.4,3.5 29.5,9 43.5,12 l 26,5.5 7.2,136 c 11.7,220 54.7,346.9 164.6,485 98.6,123.9 230.2,208.4 378.2,242.8 88,20.4 252.1,19.9 334,-1 242.4,-62.1 442.1,-263.8 504.8,-509.8 25.1,-98.3 23.1,-284 -4.1,-387 -63.6,-241 -246.8,-429.5 -473.7,-487.4 -40.3,-10.3 -129,-21.6 -198,-25.4 -275,-14.9 -510.9,-74.2 -720,-180.9 -405.4,-206.9 -676.1,-553.3 -801.9,-1026.3 -22.1,-82.9 -22.1,-84.5 -25.6,-1235.5 L 15829,11010 h 91 l 0.7,777 c 0.9,1027 11.7,1475.8 38.5,1601 38.9,182 103.5,334.2 204.5,482 78.7,114.9 272.3,304.3 392.3,383.6 232.7,153.7 452,222.2 804,251.1 264,21.7 388.9,62 532,171.9 309,237.4 380.6,736.4 155.6,1085.4 -55.7,86.5 -188.6,215.1 -275.6,266.9 -118.3,70.3 -204,93.2 -362,96.9 -90,2.1 -155.3,-1.4 -196,-10.6"
         clip-rule="evenodd"
         id="path338" /></clipPath><clipPath
       clipPathUnits="userSpaceOnUse"
       id="clipPath346"><path
         d="M 0,0 H 30000 V 20900 H 0 Z"
         id="path344" /></clipPath><clipPath
       clipPathUnits="userSpaceOnUse"
       id="clipPath356"><path
         d="m 10710,15870 v -50 h 38 c 90.8,0 243,-55.5 349,-127.2 22.6,-15.3 200.5,-172.4 395.5,-349.3 195,-176.8 363.5,-327.1 374.5,-334 16.7,-10.4 27,-8.3 62,12.5 l 42,25 -385.5,348 c -212,191.4 -411.2,367.5 -442.5,391.2 -114.6,87 -244,133.1 -375,133.6 l -58,0.2 v -50"
         clip-rule="evenodd"
         id="path354" /></clipPath><clipPath
       clipPathUnits="userSpaceOnUse"
       id="clipPath362"><path
         d="M 0,0 H 30000 V 20900 H 0 Z"
         id="path360" /></clipPath><clipPath
       clipPathUnits="userSpaceOnUse"
       id="clipPath372"><path
         d="m 17230,15851.4 c -101,-33 -163,-71.7 -240.8,-150.4 -117.5,-118.9 -159.2,-222 -159.2,-394 0,-53 2.5,-97 5.5,-97 3.1,0 24.5,4.9 48.5,11 l 43,11 5,99 c 4.4,88 9,107.1 41.2,172 61,122.8 178.8,219.5 307.8,252.6 279.2,71.7 539,-141.6 539,-442.6 0,-145 -52.6,-257.6 -160,-342.4 -87.6,-69.2 -162,-89.3 -410,-110.4 -448,-38.1 -851.7,-233.8 -1170.2,-567.2 -196,-205.2 -330.4,-436 -444.8,-764 -69.7,-199.7 -66.8,-144 -72.1,-1392 l -4.9,-1128 53.5,3 53.5,3 5.5,1140 c 5.5,1133 5.6,1140.6 27.6,1230 146.4,597 569.9,1078.8 1131.9,1287.4 136.9,50.9 270,76.7 476,92.4 206,15.8 272.7,33.2 372,97.5 147.6,95.6 232.9,241.7 248.1,424.7 21.8,264 -140,504.6 -382.1,568 -81,21.2 -243.6,19.3 -314,-3.6"
         clip-rule="evenodd"
         id="path370" /></clipPath><clipPath
       clipPathUnits="userSpaceOnUse"
       id="clipPath378"><path
         d="M 0,0 H 30000 V 20900 H 0 Z"
         id="path376" /></clipPath><clipPath
       clipPathUnits="userSpaceOnUse"
       id="clipPath388"><path
         d="m 10710,15623 v -50 l 66.5,-7 c 37,-3.9 78,-13 92.5,-20.5 14.1,-7.3 42,-19.4 61,-26.5 21,-7.8 105,-79.2 210,-178.5 96,-90.8 233.7,-218.1 305,-282 72,-64.5 147.4,-134.6 169,-157 l 39,-40.5 48.5,27 c 27,15 48.1,29.2 47.7,32 -1.6,10.2 -691.2,635.7 -741.2,672.3 -60.6,44.3 -121,64.2 -224,73.8 l -74,6.9 v -50"
         clip-rule="evenodd"
         id="path386" /></clipPath><clipPath
       clipPathUnits="userSpaceOnUse"
       id="clipPath394"><path
         d="M 0,0 H 30000 V 20900 H 0 Z"
         id="path392" /></clipPath><clipPath
       clipPathUnits="userSpaceOnUse"
       id="clipPath404"><path
         d="m 17301,15614.7 c -87.3,-24.5 -135,-66.7 -174.9,-154.7 -20.9,-46 -51.7,-197.7 -42.1,-207.1 1.6,-1.6 24,0.1 49,3.6 l 46,6.5 11.4,68 c 20,119 75.9,182.3 172.6,195.4 132.5,18 225.4,-75.4 215.3,-216.4 -4.7,-67 -23.9,-100.9 -77.3,-137.2 -54.7,-37.2 -89,-44.1 -390,-78.2 -254,-28.8 -394,-68.3 -596,-168.2 -280,-138.6 -506.5,-316.1 -703.4,-551.4 -240.8,-287.7 -431.1,-686 -473.6,-991 -7.2,-51.8 -12.4,-473.5 -15,-1226.5 l -4,-1147.5 h 101 l 0.5,1063 c 0.4,1070 4.6,1235.9 34.6,1382 70.7,344 271.4,691.7 571.9,990.9 270.7,269.4 579,447.1 903,520.4 57.8,13 181,30.9 274,39.7 286,27 386.7,64.1 439.4,162 37,68.8 47,181 23.2,263 -41.9,144.9 -207.6,228.2 -365.6,183.7"
         clip-rule="evenodd"
         id="path402" /></clipPath><clipPath
       clipPathUnits="userSpaceOnUse"
       id="clipPath410"><path
         d="M 0,0 H 30000 V 20900 H 0 Z"
         id="path408" /></clipPath><clipPath
       clipPathUnits="userSpaceOnUse"
       id="clipPath420"><path
         d="m 18617.5,13516 c -21,-12.9 -40.1,-25.6 -43.5,-29 -6.7,-6.7 696,-651.4 752,-689.8 45.7,-31.4 133,-55 219,-59.2 l 60,-3 6,93 -58,6.5 c -31.7,3.6 -92,20.3 -133,37 -68.6,27.9 -90,44.9 -250,198 -96,91.9 -235.9,221.9 -310,288 -74,66.1 -148.3,134.5 -164.5,151.5 -16.2,17 -32,30.8 -35,30.5 -3.1,-0.3 -22,-10.6 -43,-23.5"
         clip-rule="evenodd"
         id="path418" /></clipPath><clipPath
       clipPathUnits="userSpaceOnUse"
       id="clipPath426"><path
         d="M 0,0 H 30000 V 20900 H 0 Z"
         id="path424" /></clipPath><clipPath
       clipPathUnits="userSpaceOnUse"
       id="clipPath436"><path
         d="m 18391,13382.5 -44,-26.5 35,-30.5 c 19.2,-16.8 191.5,-172.4 382.5,-345.5 191,-173.1 377.7,-337.8 414.5,-365.6 113.8,-85.8 203,-119.4 348,-130.8 l 83,-6.6 v 100 l -62,6.9 c -86,9.6 -199.2,48.9 -281,97.6 -44.6,26.6 -199,159.1 -448,384.5 -209,189.2 -380.9,343.8 -382,343.5 -1.1,-0.3 -22,-12.6 -46,-27"
         clip-rule="evenodd"
         id="path434" /></clipPath><clipPath
       clipPathUnits="userSpaceOnUse"
       id="clipPath442"><path
         d="M 0,0 H 30000 V 20900 H 0 Z"
         id="path440" /></clipPath><clipPath
       clipPathUnits="userSpaceOnUse"
       id="clipPath452"><path
         d="m 18142.5,13283 c -29,-12.7 -52.5,-24.8 -52.5,-27 0,-7.8 874,-811.7 923,-849 154,-117.2 293,-163.7 502,-168.1 l 90,-1.9 v 98 l -95,7.1 c -197,14.9 -261.6,34.3 -383,115.2 -77.6,51.8 -311,261.3 -682,612.2 l -250,236.5 -52.5,-23"
         clip-rule="evenodd"
         id="path450" /></clipPath><clipPath
       clipPathUnits="userSpaceOnUse"
       id="clipPath458"><path
         d="M 0,0 H 30000 V 20900 H 0 Z"
         id="path456" /></clipPath><clipPath
       clipPathUnits="userSpaceOnUse"
       id="clipPath468"><path
         d="m 17852.5,13202 c -23,-8.7 -42.5,-19.2 -42.5,-23 0,-9.1 951,-873 1030,-935.7 126,-100.1 309.8,-191.8 425,-212.2 104,-18.4 326.5,-33.6 337,-23.1 4.9,4.9 7.6,27 6,48 l -3,39 -132,11.8 c -229,20.6 -373.8,71.1 -535,186.7 -41.8,30 -287.5,250.5 -546.5,490.5 -259,240 -476.3,435.6 -483.5,435 -7,-0.5 -32.5,-8.3 -55.5,-17"
         clip-rule="evenodd"
         id="path466" /></clipPath><clipPath
       clipPathUnits="userSpaceOnUse"
       id="clipPath474"><path
         d="M 0,0 H 30000 V 20900 H 0 Z"
         id="path472" /></clipPath><clipPath
       clipPathUnits="userSpaceOnUse"
       id="clipPath484"><path
         d="m 17556,13138 c -32,-4.3 -60.1,-9.1 -61.5,-10.5 -1.4,-1.4 181.5,-170.8 407.5,-377.5 226,-206.7 469.2,-431 542,-499.7 216,-204 388.3,-332.6 530,-395.5 138.9,-61.7 345,-102.8 531,-106.1 l 100,-1.7 v 98 l -113,7.1 c -261,16.4 -465.8,80.3 -654,204.2 -37,24.3 -87.4,64.1 -110.5,87.2 -23.4,23.4 -179.5,165.6 -347.5,316.5 -168,150.9 -403.8,364.3 -525,475 -121,110.6 -224.5,203.3 -230,206 -5.4,2.7 -37,1.3 -69,-3"
         clip-rule="evenodd"
         id="path482" /></clipPath><clipPath
       clipPathUnits="userSpaceOnUse"
       id="clipPath490"><path
         d="M 0,0 H 30000 V 20900 H 0 Z"
         id="path488" /></clipPath><clipPath
       clipPathUnits="userSpaceOnUse"
       id="clipPath500"><path
         d="m 17320,12989.5 v -64.5 l 362.5,-322 c 199,-176.8 441.4,-392.7 537.5,-478.7 371,-332.3 561.3,-459.9 804,-539.1 129.2,-42.2 319,-73.7 466,-77.3 l 115,-2.9 6,92 -115,6.9 c -283,17.2 -485.5,75.4 -701,201.8 -132,77.4 -285,199.5 -549,438 -66.9,60.4 -206,181.2 -311,270.1 -155,131.1 -455,394.1 -587,514.6 l -28,25.6 v -64.5"
         clip-rule="evenodd"
         id="path498" /></clipPath><clipPath
       clipPathUnits="userSpaceOnUse"
       id="clipPath506"><path
         d="M 0,0 H 30000 V 20900 H 0 Z"
         id="path504" /></clipPath><clipPath
       clipPathUnits="userSpaceOnUse"
       id="clipPath516"><path
         d="m 17320.5,12653 0.5,-68 72,-64 c 39.6,-35.2 216,-190.2 392,-344.5 176,-154.3 366.4,-324.2 423,-377.7 291.6,-275.1 633,-453.5 982,-513.1 108,-18.4 384.3,-39.9 406,-31.5 10.7,4.2 14.2,19.3 12,53.3 l -3,47.5 -45,2.5 c -227,12.4 -449.9,49.8 -612,102.8 -133,43.5 -339.3,148.7 -435,221.9 -89.1,68.2 -758,650.1 -993,863.9 -80,72.8 -157.3,141.5 -172.5,153.4 l -27.5,21.5 0.5,-68"
         clip-rule="evenodd"
         id="path514" /></clipPath><clipPath
       clipPathUnits="userSpaceOnUse"
       id="clipPath522"><path
         d="M 0,0 H 30000 V 20900 H 0 Z"
         id="path520" /></clipPath><clipPath
       clipPathUnits="userSpaceOnUse"
       id="clipPath532"><path
         d="m 17320,12322 v -71 l 117.5,-103.5 c 65,-57.3 164.4,-143.5 222.5,-193 57.8,-49.2 168,-147.5 245,-218.5 326,-300.3 508.7,-434.6 750,-551.2 265.6,-128.5 514,-180.5 825,-172.9 l 125,3.1 6,92 -178,6.5 c -98,3.6 -215.3,13.1 -261,21.1 -290,51 -562.7,168.9 -822,355.2 -124.4,89.4 -395,326.5 -1008,883.2 l -22,20 v -71"
         clip-rule="evenodd"
         id="path530" /></clipPath><clipPath
       clipPathUnits="userSpaceOnUse"
       id="clipPath538"><path
         d="M 0,0 H 30000 V 20900 H 0 Z"
         id="path536" /></clipPath><clipPath
       clipPathUnits="userSpaceOnUse"
       id="clipPath548"><path
         d="m 24156,6059.23 c -293,-24.14 -588.9,-123.9 -803,-270.69 -225.4,-154.56 -402.4,-401.54 -471.2,-657.54 -23.1,-85.87 -25.9,-115 -26.4,-276 -1,-345 72.9,-528.31 299.6,-742.99 208.5,-197.45 443,-306.39 900,-418.17 444,-108.6 616.6,-155.03 720,-193.7 272,-101.73 356,-183.63 356,-347.14 0,-63 -4.9,-85.4 -30.5,-140 -60.5,-129.22 -197.5,-229.73 -367.5,-269.67 -63.8,-14.98 -120,-18.25 -308,-17.9 -253,0.47 -343.2,13.35 -529,75.51 -195,65.23 -449.1,215.66 -624,369.33 -51,44.82 -94.4,80.15 -96,78.23 -1.6,-1.93 -105.1,-149 -230,-327 -222.4,-317 -226.6,-323.9 -209.3,-343.5 79.1,-89.28 316.3,-258.05 493.3,-350.91 347.4,-182.29 689,-257.09 1174,-257.09 404,0 680.6,58.48 958,202.55 288.7,149.94 483.2,375.45 575.7,667.45 45.8,144.64 57.1,227 56.3,410 -0.7,185 -19.5,293.94 -72.1,419 -79.3,188.26 -255.9,374.83 -476.9,503.75 -195.8,114.19 -379,177.81 -857,297.52 -413,103.44 -545.4,143.75 -674,205.19 -101,48.26 -165.8,109.44 -183.8,173.54 -15.1,54 -11.7,139.56 7.7,193 74.2,204.32 313.1,299.92 672.1,268.96 376,-32.43 681,-148.85 942,-359.6 42,-33.91 78.2,-61.36 81,-61.36 6,0 467,616 467,624 0,10.39 -174,147.62 -254,200.32 -398.9,262.77 -947,389.65 -1490,344.91"
         clip-rule="evenodd"
         id="path546" /></clipPath><clipPath
       clipPathUnits="userSpaceOnUse"
       id="clipPath554"><path
         d="M 0,0 H 30000 V 20900 H 0 Z"
         id="path552" /></clipPath><clipPath
       clipPathUnits="userSpaceOnUse"
       id="clipPath564"><path
         d="M 4320,4025 V 2040 h 850 v 1410 h 615 l 778,-1410 h 977 l -14.45,23 c -43.99,70 -867.49,1459.9 -872.16,1472 -4.04,10.5 12.61,19.31 66.61,35.22 106,31.25 274.52,120.69 367,194.79 206.56,165.5 357.61,426.99 410.1,709.99 25.23,136 22.43,399.03 -5.66,532 -54.09,256 -155.8,453.87 -318.71,620 C 6965.3,5838.53 6680,5967.06 6346,5999.43 6278.11,6006.02 5875.5,6010 5278.5,6010 H 4320 Z m 1924,1215.35 c 132,-33.68 253.53,-112.91 319.59,-208.35 98.25,-141.96 111.14,-383 29.51,-552 -36.47,-75.5 -140.1,-176.38 -223.1,-217.17 -136.49,-67.07 -134,-66.82 -692,-70.49 L 5170,4189 v 1071 h 498.5 c 464,0 503.83,-1.36 575.5,-19.65 z"
         clip-rule="evenodd"
         id="path562" /></clipPath><clipPath
       clipPathUnits="userSpaceOnUse"
       id="clipPath570"><path
         d="M 0,0 H 30000 V 20900 H 0 Z"
         id="path568" /></clipPath><clipPath
       clipPathUnits="userSpaceOnUse"
       id="clipPath580"><path
         d="M 8150,4025 V 2040 h 2810 v 740 l -982.5,2.5 -982.5,2.5 v 900 l 962.5,2.5 962.5,2.5 v 740 H 8990 v 830 h 1970 v 750 H 8150 V 4025"
         clip-rule="evenodd"
         id="path578" /></clipPath><clipPath
       clipPathUnits="userSpaceOnUse"
       id="clipPath586"><path
         d="M 0,0 H 30000 V 20900 H 0 Z"
         id="path584" /></clipPath><clipPath
       clipPathUnits="userSpaceOnUse"
       id="clipPath596"><path
         d="m 11210,6000 c 0,-8.19 498,-1304 1345.1,-3500 75.2,-195 145.7,-378.66 156.4,-407.5 l 19.5,-52.5 h 1064 l 58.5,152.5 c 32.2,83.89 375.2,974.5 762.5,1979.5 387.3,1005 704,1829.47 704,1832.5 0,3.03 -213.5,5.5 -475.5,5.5 H 14369 l -13.5,-32.5 c -7.4,-17.86 -255.1,-701 -550,-1517 -294.9,-816 -538.5,-1486.53 -541,-1489 -2.6,-2.57 -6.6,1.5 -9.5,9.5 -2.7,7.7 -249.5,691 -548.5,1519 l -543.5,1505 -476.5,2.5 c -310,1.63 -476.5,-0.99 -476.5,-7.5"
         clip-rule="evenodd"
         id="path594" /></clipPath><clipPath
       clipPathUnits="userSpaceOnUse"
       id="clipPath602"><path
         d="M 0,0 H 30000 V 20900 H 0 Z"
         id="path600" /></clipPath><clipPath
       clipPathUnits="userSpaceOnUse"
       id="clipPath612"><path
         d="M 15690,4025 V 2040 h 2810 v 740 h -1960 v 910 h 1920 v 740 h -1920 v 830 h 1960 v 750 H 15690 V 4025"
         clip-rule="evenodd"
         id="path610" /></clipPath><clipPath
       clipPathUnits="userSpaceOnUse"
       id="clipPath618"><path
         d="M 0,0 H 30000 V 20900 H 0 Z"
         id="path616" /></clipPath><clipPath
       clipPathUnits="userSpaceOnUse"
       id="clipPath628"><path
         d="m 19167,6004 c -3.9,-3.85 -7,-897.5 -7,-1985.5 V 2040 h 850 v 1410 h 617 l 778,-1410 h 977 l -25,42.5 c -13.7,23.35 -214.7,361.5 -446,750.5 -231.3,389 -421,709.58 -421,711.5 0,1.94 32,13.16 72,25.23 163,49.2 327.9,148.87 454,274.37 158,157.31 268.2,365.9 319.9,605.9 25.9,120.12 26.2,429 0.5,550 -99.3,468 -387.1,793.33 -826.4,934.35 -223.9,71.87 -182,69.53 -1316,73.28 -561,1.85 -1023.1,0.22 -1027,-3.63 z m 1917,-763.83 c 108,-27.81 189.9,-73.85 266,-149.63 68.8,-68.47 100.4,-123.54 125.3,-218.54 17.2,-65.61 19.3,-186 4.6,-263 -33.6,-175.57 -170.9,-321.2 -363.9,-385.86 l -81,-27.14 -512.5,-3.5 -512.5,-3.5 v 1071 h 498.5 c 464,0 503.8,-1.37 575.5,-19.83 z"
         clip-rule="evenodd"
         id="path626" /></clipPath><clipPath
       clipPathUnits="userSpaceOnUse"
       id="clipPath634"><path
         d="M 0,0 H 30000 V 20900 H 0 Z"
         id="path632" /></clipPath></defs><sodipodi:namedview
     pagecolor="#ffffff"
     bordercolor="#666666"
     borderopacity="1"
     objecttolerance="10"
     gridtolerance="10"
     guidetolerance="10"
     inkscape:pageopacity="0"
     inkscape:pageshadow="2"
     inkscape:window-width="640"
     inkscape:window-height="480"
     id="namedview4" /><g
     id="g10"
     inkscape:groupmode="layer"
     inkscape:label="ink_ext_XXXXXX"
     transform="matrix(1.3333333,0,0,-1.3333333,0,2786.6667)"><g
       id="g12"
       transform="scale(0.1)"><g
         id="g14"><g
           id="g16"
           clip-path="url(#clipPath20)"><g
             id="g22"
             clip-path="url(#clipPath26)"><path
               d="M -40,-40 H 30040 V 20950 H -40 Z"
               style="fill:#c71681;fill-opacity:1;fill-rule:nonzero;stroke:none"
               id="path28" /></g></g></g><g
         id="g30"><g
           id="g32"
           clip-path="url(#clipPath36)"><g
             id="g38"
             clip-path="url(#clipPath42)"><path
               d="m 10660,15956 h 2390 v 1484 h -2390 z"
               style="fill:#3c0659;fill-opacity:1;fill-rule:nonzero;stroke:none"
               id="path44" /></g></g></g><g
         id="g46"><g
           id="g48"
           clip-path="url(#clipPath52)"><g
             id="g54"
             clip-path="url(#clipPath58)"><path
               d="m 10841.6,10962.3 h 4207.42 V 17440 H 10841.6 Z"
               style="fill:#3c0659;fill-opacity:1;fill-rule:nonzero;stroke:none"
               id="path60" /></g></g></g><g
         id="g62"><g
           id="g64"
           clip-path="url(#clipPath68)"><g
             id="g70"
             clip-path="url(#clipPath74)"><path
               d="m 11084.5,11206.7 h 3726.38 v 6233.33 H 11084.5 Z"
               style="fill:#3c0659;fill-opacity:1;fill-rule:nonzero;stroke:none"
               id="path76" /></g></g></g><g
         id="g78"><g
           id="g80"
           clip-path="url(#clipPath84)"><g
             id="g86"
             clip-path="url(#clipPath90)"><path
               d="m 11345.6,11461.8 h 3193.93 v 5978.18 H 11345.6 Z"
               style="fill:#3c0659;fill-opacity:1;fill-rule:nonzero;stroke:none"
               id="path92" /></g></g></g><g
         id="g94"><g
           id="g96"
           clip-path="url(#clipPath100)"><g
             id="g102"
             clip-path="url(#clipPath106)"><path
               d="m 11583.2,11711.4 h 2736.61 v 5728.55 H 11583.2 Z"
               style="fill:#3c0659;fill-opacity:1;fill-rule:nonzero;stroke:none"
               id="path108" /></g></g></g><g
         id="g110"><g
           id="g112"
           clip-path="url(#clipPath116)"><g
             id="g118"
             clip-path="url(#clipPath122)"><path
               d="m 11839.5,11963.8 h 2480.47 v 5476.17 H 11839.5 Z"
               style="fill:#3c0659;fill-opacity:1;fill-rule:nonzero;stroke:none"
               id="path124" /></g></g></g><g
         id="g126"><g
           id="g128"
           clip-path="url(#clipPath132)"><g
             id="g134"
             clip-path="url(#clipPath138)"><path
               d="m 12092.1,12220 h 2447.89 v 5220.05 H 12092.1 Z"
               style="fill:#3c0659;fill-opacity:1;fill-rule:nonzero;stroke:none"
               id="path140" /></g></g></g><g
         id="g142"><g
           id="g144"
           clip-path="url(#clipPath148)"><g
             id="g150"
             clip-path="url(#clipPath154)"><path
               d="m 12342.4,12481.8 h 2467.59 v 4958.18 H 12342.4 Z"
               style="fill:#3c0659;fill-opacity:1;fill-rule:nonzero;stroke:none"
               id="path156" /></g></g></g><g
         id="g158"><g
           id="g160"
           clip-path="url(#clipPath164)"><g
             id="g166"
             clip-path="url(#clipPath170)"><path
               d="m 12591.5,12730.6 h 2458.48 v 4709.43 H 12591.5 Z"
               style="fill:#3c0659;fill-opacity:1;fill-rule:nonzero;stroke:none"
               id="path172" /></g></g></g><g
         id="g174"><g
           id="g176"
           clip-path="url(#clipPath180)"><g
             id="g182"
             clip-path="url(#clipPath186)"><path
               d="m 15271,10960 h 4207.04 v 6476.6 H 15271 Z"
               style="fill:#3c0659;fill-opacity:1;fill-rule:nonzero;stroke:none"
               id="path188" /></g></g></g><g
         id="g190"><g
           id="g192"
           clip-path="url(#clipPath196)"><g
             id="g198"
             clip-path="url(#clipPath202)"><path
               d="m 10659,15627 h 2391 v 1573 h -2391 z"
               style="fill:#3c0659;fill-opacity:1;fill-rule:nonzero;stroke:none"
               id="path204" /></g></g></g><g
         id="g206"><g
           id="g208"
           clip-path="url(#clipPath212)"><g
             id="g214"
             clip-path="url(#clipPath218)"><path
               d="m 15511.8,10960 h 3718.6 v 6238.64 h -3718.6 z"
               style="fill:#3c0659;fill-opacity:1;fill-rule:nonzero;stroke:none"
               id="path220" /></g></g></g><g
         id="g222"><g
           id="g224"
           clip-path="url(#clipPath228)"><g
             id="g230"
             clip-path="url(#clipPath234)"><path
               d="m 10660,15296 h 2390 v 1657 h -2390 z"
               style="fill:#3c0659;fill-opacity:1;fill-rule:nonzero;stroke:none"
               id="path236" /></g></g></g><g
         id="g238"><g
           id="g240"
           clip-path="url(#clipPath244)"><g
             id="g246"
             clip-path="url(#clipPath250)"><path
               d="m 15779,10960 h 3195.82 v 5975.79 H 15779 Z"
               style="fill:#3c0659;fill-opacity:1;fill-rule:nonzero;stroke:none"
               id="path252" /></g></g></g><g
         id="g254"><g
           id="g256"
           clip-path="url(#clipPath260)"><g
             id="g262"
             clip-path="url(#clipPath266)"><path
               d="m 10661.3,15210.3 h 2218.75 v 1499.18 H 10661.3 Z"
               style="fill:#3c0659;fill-opacity:1;fill-rule:nonzero;stroke:none"
               id="path268" /></g></g></g><g
         id="g270"><g
           id="g272"
           clip-path="url(#clipPath276)"><g
             id="g278"
             clip-path="url(#clipPath282)"><path
               d="m 16001.4,10959 h 2731.86 v 5726.98 H 16001.4 Z"
               style="fill:#3c0659;fill-opacity:1;fill-rule:nonzero;stroke:none"
               id="path284" /></g></g></g><g
         id="g286"><g
           id="g288"
           clip-path="url(#clipPath292)"><g
             id="g294"
             clip-path="url(#clipPath298)"><path
               d="m 10659,15135.5 h 1900.69 v 1314.54 H 10659 Z"
               style="fill:#3c0659;fill-opacity:1;fill-rule:nonzero;stroke:none"
               id="path300" /></g></g></g><g
         id="g302"><g
           id="g304"
           clip-path="url(#clipPath308)"><g
             id="g310"
             clip-path="url(#clipPath314)"><path
               d="m 16000,10960 h 2479.62 v 5478.05 H 16000 Z"
               style="fill:#3c0659;fill-opacity:1;fill-rule:nonzero;stroke:none"
               id="path316" /></g></g></g><g
         id="g318"><g
           id="g320"
           clip-path="url(#clipPath324)"><g
             id="g326"
             clip-path="url(#clipPath330)"><path
               d="m 10661.3,15048 h 1603.81 v 1170.41 H 10661.3 Z"
               style="fill:#3c0659;fill-opacity:1;fill-rule:nonzero;stroke:none"
               id="path332" /></g></g></g><g
         id="g334"><g
           id="g336"
           clip-path="url(#clipPath340)"><g
             id="g342"
             clip-path="url(#clipPath346)"><path
               d="m 15779,10960 h 2450.05 v 5216.43 H 15779 Z"
               style="fill:#3c0659;fill-opacity:1;fill-rule:nonzero;stroke:none"
               id="path348" /></g></g></g><g
         id="g350"><g
           id="g352"
           clip-path="url(#clipPath356)"><g
             id="g358"
             clip-path="url(#clipPath362)"><path
               d="m 10660,14953.4 h 1361 v 1016.62 h -1361 z"
               style="fill:#3c0659;fill-opacity:1;fill-rule:nonzero;stroke:none"
               id="path364" /></g></g></g><g
         id="g366"><g
           id="g368"
           clip-path="url(#clipPath372)"><g
             id="g374"
             clip-path="url(#clipPath378)"><path
               d="m 15508,10959 h 2470.06 v 4960.82 H 15508 Z"
               style="fill:#3c0659;fill-opacity:1;fill-rule:nonzero;stroke:none"
               id="path380" /></g></g></g><g
         id="g382"><g
           id="g384"
           clip-path="url(#clipPath388)"><g
             id="g390"
             clip-path="url(#clipPath394)"><path
               d="m 10660,14811 h 1139.22 v 912 H 10660 Z"
               style="fill:#3c0659;fill-opacity:1;fill-rule:nonzero;stroke:none"
               id="path396" /></g></g></g><g
         id="g398"><g
           id="g400"
           clip-path="url(#clipPath404)"><g
             id="g406"
             clip-path="url(#clipPath410)"><path
               d="m 15269,10960 h 2460.48 v 4716.71 H 15269 Z"
               style="fill:#3c0659;fill-opacity:1;fill-rule:nonzero;stroke:none"
               id="path412" /></g></g></g><g
         id="g414"><g
           id="g416"
           clip-path="url(#clipPath420)"><g
             id="g422"
             clip-path="url(#clipPath426)"><path
               d="m 18524,12685 h 1137.05 v 904.508 H 18524 Z"
               style="fill:#3c0659;fill-opacity:1;fill-rule:nonzero;stroke:none"
               id="path428" /></g></g></g><g
         id="g430"><g
           id="g432"
           clip-path="url(#clipPath436)"><g
             id="g438"
             clip-path="url(#clipPath442)"><path
               d="m 18297,12427 h 1363 v 1032.5 h -1363 z"
               style="fill:#3c0659;fill-opacity:1;fill-rule:nonzero;stroke:none"
               id="path444" /></g></g></g><g
         id="g446"><g
           id="g448"
           clip-path="url(#clipPath452)"><g
             id="g454"
             clip-path="url(#clipPath458)"><path
               d="m 18040,12187 h 1615 v 1169 h -1615 z"
               style="fill:#3c0659;fill-opacity:1;fill-rule:nonzero;stroke:none"
               id="path460" /></g></g></g><g
         id="g462"><g
           id="g464"
           clip-path="url(#clipPath468)"><g
             id="g470"
             clip-path="url(#clipPath474)"><path
               d="m 17760,11954.5 h 1898.46 v 1314.46 H 17760 Z"
               style="fill:#3c0659;fill-opacity:1;fill-rule:nonzero;stroke:none"
               id="path476" /></g></g></g><g
         id="g478"><g
           id="g480"
           clip-path="url(#clipPath484)"><g
             id="g486"
             clip-path="url(#clipPath490)"><path
               d="m 17444.5,11697 h 2210.52 v 1495.39 H 17444.5 Z"
               style="fill:#3c0659;fill-opacity:1;fill-rule:nonzero;stroke:none"
               id="path492" /></g></g></g><g
         id="g494"><g
           id="g496"
           clip-path="url(#clipPath500)"><g
             id="g502"
             clip-path="url(#clipPath506)"><path
               d="m 17270,11455 h 2391 v 1649 h -2391 z"
               style="fill:#3c0659;fill-opacity:1;fill-rule:nonzero;stroke:none"
               id="path508" /></g></g></g><g
         id="g510"><g
           id="g512"
           clip-path="url(#clipPath516)"><g
             id="g518"
             clip-path="url(#clipPath522)"><path
               d="m 17270,11202.3 h 2388.61 v 1568.65 H 17270 Z"
               style="fill:#3c0659;fill-opacity:1;fill-rule:nonzero;stroke:none"
               id="path524" /></g></g></g><g
         id="g526"><g
           id="g528"
           clip-path="url(#clipPath532)"><g
             id="g534"
             clip-path="url(#clipPath538)"><path
               d="m 17270,10961.2 h 2391 V 12443 h -2391 z"
               style="fill:#3c0659;fill-opacity:1;fill-rule:nonzero;stroke:none"
               id="path540" /></g></g></g><g
         id="g542"><g
           id="g544"
           clip-path="url(#clipPath548)"><g
             id="g550"
             clip-path="url(#clipPath554)"><path
               d="m 22680.4,1920 h 3363.63 V 6118.06 H 22680.4 Z"
               style="fill:#3c0659;fill-opacity:1;fill-rule:nonzero;stroke:none"
               id="path556" /></g></g></g><g
         id="g558"><g
           id="g560"
           clip-path="url(#clipPath564)"><g
             id="g566"
             clip-path="url(#clipPath570)"><path
               d="M 4270,1990 H 7590 V 6060 H 4270 Z"
               style="fill:#3c0659;fill-opacity:1;fill-rule:nonzero;stroke:none"
               id="path572" /></g></g></g><g
         id="g574"><g
           id="g576"
           clip-path="url(#clipPath580)"><g
             id="g582"
             clip-path="url(#clipPath586)"><path
               d="m 8100,1990 h 2910 V 6060 H 8100 Z"
               style="fill:#3c0659;fill-opacity:1;fill-rule:nonzero;stroke:none"
               id="path588" /></g></g></g><g
         id="g590"><g
           id="g592"
           clip-path="url(#clipPath596)"><g
             id="g598"
             clip-path="url(#clipPath602)"><path
               d="m 11160,1990 h 4210 v 4070 h -4210 z"
               style="fill:#3c0659;fill-opacity:1;fill-rule:nonzero;stroke:none"
               id="path604" /></g></g></g><g
         id="g606"><g
           id="g608"
           clip-path="url(#clipPath612)"><g
             id="g614"
             clip-path="url(#clipPath618)"><path
               d="m 15640,1990 h 2910 v 4070 h -2910 z"
               style="fill:#3c0659;fill-opacity:1;fill-rule:nonzero;stroke:none"
               id="path620" /></g></g></g><g
         id="g622"><g
           id="g624"
           clip-path="url(#clipPath628)"><g
             id="g630"
             clip-path="url(#clipPath634)"><path
               d="m 19110,1990 h 3322 v 4068.39 h -3322 z"
               style="fill:#3c0659;fill-opacity:1;fill-rule:nonzero;stroke:none"
               id="path636" /></g></g></g></g></g></svg>
